<?xml version="1.0" encoding="UTF-8"?>
<svg xmlns="http://www.w3.org/2000/svg" xmlns:xlink="http://www.w3.org/1999/xlink" width="1000pt" height="338pt" viewBox="0 0 1000 338" version="1.2">
<g id="surface1">
<path style=" stroke:none;fill-rule:nonzero;fill:rgb(7.450867%,19.999695%,17.254639%);fill-opacity:1;" d="M 128.578125 119.285156 C 123.761719 115.457031 118.128906 113.039062 112.121094 111.765625 C 108.34375 110.964844 106.167969 109.988281 98.691406 109.449219 C 106.167969 108.910156 108.34375 107.933594 112.121094 107.132812 C 118.128906 105.855469 123.761719 103.441406 128.578125 99.613281 C 134.171875 95.164062 137.414062 90.925781 140.324219 85.550781 C 143.019531 80.566406 144.894531 73.578125 144.894531 66.703125 C 144.894531 58.933594 143.292969 52.222656 140.113281 46.5625 C 136.921875 40.90625 132.804688 36.300781 127.753906 32.75 C 122.691406 29.199219 116.875 26.535156 110.28125 24.761719 C 103.6875 22.980469 96.984375 22.097656 90.175781 22.097656 L 18 22.097656 L 18 73.027344 C 18 82.347656 20.804688 90.109375 26.402344 96.328125 C 32.007812 102.535156 36.460938 107.003906 44.375 109.449219 C 36.460938 111.894531 32.007812 116.363281 26.402344 122.570312 C 20.804688 128.789062 18 136.550781 18 145.871094 L 18 196.800781 L 90.175781 196.800781 C 96.984375 196.800781 103.6875 195.917969 110.28125 194.136719 C 116.875 192.359375 122.691406 189.699219 127.753906 186.148438 C 132.804688 182.597656 136.921875 177.996094 140.113281 172.335938 C 143.292969 166.675781 144.894531 159.964844 144.894531 152.195312 C 144.894531 145.320312 143.019531 138.332031 140.324219 133.347656 C 137.414062 127.972656 134.171875 123.734375 128.578125 119.285156 M 40.988281 100.984375 C 39.339844 98.988281 38.074219 96.769531 37.199219 94.328125 C 36.316406 91.882812 35.878906 89.554688 35.878906 87.339844 L 35.878906 24.761719 L 77.949219 24.761719 C 91.027344 24.761719 94.15625 25.65625 103.113281 30.242188 C 112.148438 34.867188 123.816406 48.328125 123.816406 66.765625 C 123.816406 79.660156 117.257812 94.066406 102.925781 102.472656 C 98.605469 105.007812 94.019531 107.46875 83.054688 107.976562 L 53.238281 107.976562 C 50.378906 107.976562 49.226562 107.308594 46.921875 105.980469 C 44.613281 104.648438 42.636719 102.984375 40.988281 100.984375 M 103.113281 188.652344 C 94.15625 193.238281 91.027344 194.136719 77.949219 194.136719 L 35.878906 194.136719 L 35.878906 131.558594 C 35.878906 129.34375 36.316406 127.015625 37.199219 124.566406 C 38.074219 122.128906 39.339844 119.90625 40.988281 117.914062 C 42.636719 115.914062 44.613281 114.25 46.921875 112.917969 C 49.226562 111.585938 50.378906 110.921875 53.238281 110.921875 L 83.054688 110.921875 C 94.019531 111.429688 98.605469 113.890625 102.925781 116.425781 C 117.257812 124.832031 123.816406 139.238281 123.816406 152.132812 C 123.816406 170.570312 112.148438 184.03125 103.113281 188.652344 "/>
<path style=" stroke:none;fill-rule:nonzero;fill:rgb(7.450867%,19.999695%,17.254639%);fill-opacity:1;" d="M 800.054688 191.886719 C 791.519531 195.664062 788.875 198.734375 785.621094 208.648438 C 782.367188 198.734375 779.726562 195.664062 771.1875 191.886719 C 779.726562 188.105469 782.367188 185.039062 785.621094 175.125 C 788.875 185.039062 791.519531 188.105469 800.054688 191.886719 "/>
<path style=" stroke:none;fill-rule:nonzero;fill:rgb(7.450867%,19.999695%,17.254639%);fill-opacity:1;" d="M 198.679688 24.140625 L 215.359375 24.140625 L 215.359375 198.050781 L 198.679688 198.050781 Z M 198.679688 24.140625 "/>
<path style=" stroke:none;fill-rule:nonzero;fill:rgb(7.450867%,19.999695%,17.254639%);fill-opacity:1;" d="M 309.429688 199.46875 C 301.148438 199.46875 293.28125 197.339844 285.832031 193.082031 C 278.375 188.824219 273.109375 183.027344 270.035156 175.691406 L 283.878906 165.398438 C 283.878906 168.003906 284.234375 171.074219 284.941406 174.625 C 285.652344 178.171875 287.011719 181.609375 289.023438 184.917969 C 291.03125 188.234375 293.816406 191.074219 297.363281 193.4375 C 300.914062 195.804688 305.527344 196.984375 311.203125 196.984375 C 316.40625 196.984375 320.488281 195.6875 323.449219 193.082031 C 326.40625 190.480469 328.652344 187.226562 330.195312 183.320312 C 331.730469 179.417969 332.679688 175.15625 333.035156 170.542969 C 333.386719 165.929688 333.566406 161.734375 333.566406 157.945312 L 333.566406 24.140625 L 350.601562 24.140625 L 350.601562 150.488281 C 350.601562 157.589844 349.949219 164.15625 348.648438 170.1875 C 347.34375 176.222656 345.15625 181.367188 342.082031 185.628906 C 339.003906 189.886719 334.808594 193.257812 329.484375 195.742188 C 324.160156 198.226562 317.472656 199.46875 309.429688 199.46875 "/>
<path style=" stroke:none;fill-rule:nonzero;fill:rgb(7.450867%,19.999695%,17.254639%);fill-opacity:1;" d="M 404.539062 111.09375 C 404.539062 99.03125 406.847656 87.671875 411.464844 77.023438 C 416.074219 66.375 422.34375 57.09375 430.269531 49.164062 C 438.195312 41.238281 447.484375 34.964844 458.132812 30.351562 C 468.78125 25.738281 480.136719 23.429688 492.203125 23.429688 C 504.269531 23.429688 515.628906 25.738281 526.277344 30.351562 C 536.921875 34.964844 546.207031 41.238281 554.136719 49.164062 C 562.0625 57.09375 568.332031 66.375 572.949219 77.023438 C 577.5625 87.671875 579.867188 99.03125 579.867188 111.09375 C 579.867188 123.164062 577.5625 134.519531 572.949219 145.164062 C 568.332031 155.816406 562.0625 165.105469 554.136719 173.027344 C 546.207031 180.957031 536.921875 187.226562 526.277344 191.839844 C 515.628906 196.453125 504.269531 198.757812 492.203125 198.757812 C 480.136719 198.757812 468.78125 196.453125 458.132812 191.839844 C 447.484375 187.226562 438.195312 180.957031 430.269531 173.027344 C 422.34375 165.105469 416.074219 155.816406 411.464844 145.164062 C 406.847656 134.519531 404.539062 123.164062 404.539062 111.09375 M 424.0625 106.835938 C 424.0625 116.773438 425.773438 127.066406 429.207031 137.710938 C 432.632812 148.363281 437.484375 158.003906 443.757812 166.640625 C 450.027344 175.28125 457.652344 182.375 466.648438 187.9375 C 475.640625 193.496094 485.691406 196.273438 496.816406 196.273438 C 507.226562 196.273438 516.394531 193.789062 524.324219 188.824219 C 532.246094 183.855469 538.929688 177.464844 544.375 169.65625 C 549.816406 161.847656 553.957031 153.152344 556.800781 143.570312 C 559.640625 133.988281 561.058594 124.582031 561.058594 115.355469 C 561.058594 105.183594 559.398438 94.828125 556.089844 84.296875 C 552.773438 73.773438 547.980469 64.191406 541.714844 55.550781 C 535.441406 46.914062 527.8125 39.878906 518.820312 34.433594 C 509.828125 28.992188 499.660156 26.269531 488.300781 26.269531 C 478.121094 26.269531 469.011719 28.753906 460.972656 33.722656 C 452.925781 38.691406 446.183594 45.078125 440.742188 52.890625 C 435.296875 60.699219 431.15625 69.335938 428.320312 78.796875 C 425.480469 88.265625 424.0625 97.609375 424.0625 106.835938 "/>
<path style=" stroke:none;fill-rule:nonzero;fill:rgb(7.450867%,19.999695%,17.254639%);fill-opacity:1;" d="M 650.136719 24.140625 L 650.136719 136.652344 C 650.136719 144.222656 651.078125 151.5 652.976562 158.476562 C 654.867188 165.457031 657.820312 171.550781 661.851562 176.753906 C 665.871094 181.960938 670.953125 186.105469 677.109375 189.175781 C 683.261719 192.253906 690.476562 193.789062 698.761719 193.789062 C 716.265625 193.789062 728.867188 188.644531 736.558594 178.351562 C 744.246094 168.058594 748.09375 154.75 748.09375 138.421875 L 748.09375 24.140625 L 750.933594 24.140625 L 750.933594 138.777344 C 750.933594 157.472656 746.550781 172.316406 737.796875 183.320312 C 729.042969 194.324219 714.847656 199.824219 695.210938 199.824219 C 675.097656 199.824219 659.71875 194.5625 649.070312 184.03125 C 638.421875 173.503906 633.101562 158.183594 633.101562 138.070312 L 633.101562 24.140625 Z M 650.136719 24.140625 "/>
<path style=" stroke:none;fill-rule:nonzero;fill:rgb(7.450867%,19.999695%,17.254639%);fill-opacity:1;" d="M 975.082031 75.378906 C 970.464844 64.730469 964.195312 55.445312 956.269531 47.515625 C 948.339844 39.59375 939.058594 33.320312 928.410156 28.703125 C 917.757812 24.09375 906.402344 21.785156 894.335938 21.785156 C 882.269531 21.785156 870.914062 24.09375 860.265625 28.703125 C 849.617188 33.320312 840.328125 39.59375 832.402344 47.515625 C 824.476562 55.445312 818.207031 64.730469 813.597656 75.378906 C 808.976562 86.023438 806.671875 97.382812 806.671875 109.449219 C 806.671875 121.515625 808.976562 132.871094 813.597656 143.519531 C 818.207031 154.167969 824.476562 163.457031 832.402344 171.382812 C 840.328125 179.3125 849.617188 185.578125 860.265625 190.191406 C 870.914062 194.804688 882.269531 197.113281 894.335938 197.113281 C 900.015625 197.113281 905.53125 196.582031 910.898438 195.5625 L 930.195312 231.445312 C 931.613281 227.417969 933.921875 223.460938 937.113281 219.554688 C 940.308594 215.652344 944.03125 213.347656 948.292969 212.636719 L 916.8125 194.214844 C 920.765625 193.160156 924.632812 191.828125 928.410156 190.191406 C 939.058594 185.578125 948.339844 179.3125 956.269531 171.382812 C 964.195312 163.457031 970.464844 154.167969 975.082031 143.519531 C 979.691406 132.871094 982 121.515625 982 109.449219 C 982 97.382812 979.691406 86.023438 975.082031 75.378906 M 958.933594 141.925781 C 956.089844 151.507812 951.949219 160.199219 946.507812 168.011719 C 941.0625 175.816406 934.378906 182.207031 926.457031 187.175781 C 918.523438 192.144531 909.359375 194.628906 898.949219 194.628906 C 887.824219 194.628906 877.773438 191.851562 868.78125 186.289062 C 859.785156 180.730469 852.15625 173.632812 845.890625 164.992188 C 839.617188 156.359375 834.765625 146.714844 831.339844 136.066406 C 827.90625 125.417969 826.191406 115.125 826.191406 105.191406 C 826.191406 95.964844 827.613281 86.617188 830.453125 77.152344 C 833.292969 67.691406 837.429688 59.050781 842.875 51.242188 C 848.316406 43.433594 855.058594 37.046875 863.105469 32.078125 C 871.144531 27.109375 880.253906 24.625 890.433594 24.625 C 901.792969 24.625 911.960938 27.347656 920.957031 32.785156 C 929.945312 38.234375 937.574219 45.269531 943.847656 53.902344 C 950.113281 62.542969 954.90625 72.125 958.21875 82.652344 C 961.53125 93.183594 963.1875 103.535156 963.1875 113.707031 C 963.1875 122.9375 961.769531 132.339844 958.933594 141.925781 "/>
<path style=" stroke:none;fill-rule:nonzero;fill:rgb(7.450867%,19.999695%,17.254639%);fill-opacity:1;" d="M 221.851562 281.425781 L 205.527344 281.425781 L 205.527344 314.117188 L 210.460938 314.117188 L 210.460938 298.558594 L 221.449219 298.558594 L 221.449219 293.917969 L 210.460938 293.917969 L 210.460938 286.0625 L 221.851562 286.0625 Z M 247.160156 314.117188 L 252.09375 314.117188 L 252.09375 281.425781 L 247.160156 281.425781 Z M 285.011719 314.117188 L 285.011719 291.230469 L 308.855469 316.109375 L 308.855469 281.425781 L 303.921875 281.425781 L 303.921875 304.148438 L 280.078125 279.203125 L 280.078125 314.117188 Z M 354.863281 281.425781 L 336.824219 281.425781 L 336.824219 314.117188 L 354.863281 314.117188 L 354.863281 309.484375 L 341.757812 309.484375 L 341.757812 298.558594 L 354.484375 298.558594 L 354.484375 293.917969 L 341.757812 293.917969 L 341.757812 286.0625 L 354.863281 286.0625 Z M 419.617188 281.425781 L 419.617188 302.578125 C 419.617188 305.359375 419.320312 307.308594 418.726562 308.421875 C 418.164062 309.539062 417.148438 310.097656 415.679688 310.097656 C 414.632812 310.097656 413.511719 309.695312 412.3125 308.890625 L 409.898438 313.101562 C 411.691406 314.175781 413.617188 314.710938 415.679688 314.710938 C 418.402344 314.710938 420.589844 313.746094 422.242188 311.8125 C 423.089844 310.835938 423.6875 309.644531 424.042969 308.234375 C 424.394531 306.988281 424.574219 305.105469 424.574219 302.578125 L 424.574219 281.425781 Z M 470.550781 281.425781 L 452.507812 281.425781 L 452.507812 314.117188 L 470.550781 314.117188 L 470.550781 309.484375 L 457.445312 309.484375 L 457.445312 298.558594 L 470.167969 298.558594 L 470.167969 293.917969 L 457.445312 293.917969 L 457.445312 286.0625 L 470.550781 286.0625 Z M 494.035156 281.425781 L 507.925781 316.214844 L 516.691406 293.03125 L 525.097656 316.195312 L 539.707031 281.425781 L 534.351562 281.425781 L 525.308594 303.277344 L 516.796875 279.839844 L 507.90625 303.277344 L 499.390625 281.425781 Z M 581.894531 281.425781 L 563.855469 281.425781 L 563.855469 314.117188 L 581.894531 314.117188 L 581.894531 309.484375 L 568.789062 309.484375 L 568.789062 298.558594 L 581.511719 298.558594 L 581.511719 293.917969 L 568.789062 293.917969 L 568.789062 286.0625 L 581.894531 286.0625 Z M 608.570312 281.425781 L 608.570312 314.117188 L 623.117188 314.117188 L 623.117188 309.484375 L 613.5 309.484375 L 613.5 281.425781 Z M 647.683594 281.425781 L 647.683594 314.117188 L 662.234375 314.117188 L 662.234375 309.484375 L 652.621094 309.484375 L 652.621094 281.425781 Z M 704.84375 281.425781 L 686.800781 281.425781 L 686.800781 314.117188 L 704.84375 314.117188 L 704.84375 309.484375 L 691.738281 309.484375 L 691.738281 298.558594 L 704.460938 298.558594 L 704.460938 293.917969 L 691.738281 293.917969 L 691.738281 286.0625 L 704.84375 286.0625 Z M 747.84375 296.988281 C 749.167969 295.324219 749.832031 293.332031 749.832031 291.019531 C 749.832031 288.054688 748.773438 285.667969 746.65625 283.863281 C 744.738281 282.238281 741.617188 281.425781 737.296875 281.425781 L 731.515625 281.425781 L 731.515625 314.117188 L 736.453125 314.117188 L 736.453125 300.738281 L 737.339844 300.738281 L 746.675781 314.117188 L 752.710938 314.117188 L 742.589844 300.1875 C 744.765625 299.722656 746.515625 298.65625 747.84375 296.988281 M 736.453125 286.0625 L 738.207031 286.0625 C 742.753906 286.0625 745.027344 287.738281 745.027344 291.082031 C 745.027344 294.652344 742.691406 296.4375 738.015625 296.4375 L 736.453125 296.4375 Z M 782.890625 314.117188 L 787.824219 314.117188 L 787.824219 299.996094 L 798.539062 281.425781 L 792.863281 281.425781 L 785.367188 294.488281 L 777.894531 281.425781 L 772.21875 281.425781 L 782.890625 299.996094 Z M 782.890625 314.117188 "/>
</g>
</svg>
