<?xml version="1.0" encoding="UTF-8"?>
<svg id="Layer_1" xmlns="http://www.w3.org/2000/svg" version="1.1" viewBox="0 0 379 138">
  <!-- Generator: Adobe Illustrator 29.6.1, SVG Export Plug-In . SVG Version: 2.1.1 Build 9)  -->
  <defs>
    <style>
      .st0 {
        fill: #c99049;
      }

      .st1 {
        fill: #275fac;
      }

      .st2 {
        fill: #fefefe;
      }
    </style>
  </defs>
  <path class="st1" d="M23.7,1.3h41.4c3.8.2,5,2.1,7.5,4.5,4.7,4.3,9.6,8.8,14.1,13.3,1.3,1.3,2.4,2.4,2.8,4.3.3,24.9.3,49.8,0,74.7-.3,1.3-1,2.4-1.8,3.4l-18,18.2c-1.4,1.1-3,1.7-4.7,1.9H24.6c-1.7-.2-3.2-.6-4.5-1.7-5.6-5.6-11.5-10.8-17-16.4-1.7-1.7-2.8-2.7-3-5.4V24.5c.2-3.9,3.9-6.2,6.4-8.7,3.7-3.6,7.3-7.3,11.1-10.8,1.9-1.7,3.3-3.3,6-3.6h0ZM23.7,2.3c-1.1.3-2.2.6-3.1,1.3C15,9.2,9.1,14.4,3.7,20c-1.2,1.3-2.2,2.2-2.5,4.1v73.7c0,1.2.5,2.4,1.2,3.4,6.3,6.1,12.4,12.3,18.9,18.1,1.2.8,2.4,1,3.8,1.1h39.5c1.5,0,3-.5,4.2-1.4l18.4-18.5c1-1.2,1.5-2.7,1.6-4.2V25c-.1-1.5-.5-2.9-1.4-4-1.8-2.2-5.1-4.7-7.3-6.8-3.4-3.2-7.1-7.2-10.6-10.2-1.3-1.1-2.6-1.6-4.3-1.7H23.7s0,0,0,0Z"/>
  <path class="st2" d="M23.7,2.3h41.4c1.7,0,3,.6,4.3,1.7,3.6,3,7.2,6.9,10.6,10.2,2.2,2.1,5.4,4.6,7.3,6.8.9,1.1,1.3,2.6,1.4,4v71.3c-.1,1.5-.6,3-1.6,4.2l-18.4,18.5c-1.3.9-2.7,1.3-4.2,1.4H25.1c-1.4-.1-2.6-.3-3.8-1.1-6.4-5.9-12.6-12.1-18.9-18.1-.7-1-1.1-2.2-1.2-3.4V24.1c.3-2,1.3-2.8,2.5-4.1C9.1,14.4,15,9.2,20.5,3.7c.9-.8,2-1.1,3.1-1.3ZM23.5,6.2c-6.1,5.5-11.9,11.4-17.9,17l-.3.5v75.6c6,5.9,12.1,11.7,18.3,17.3h42.8c6.1-5.7,12.3-11.5,18.1-17.4V23.7c-5.9-5.9-11.9-11.8-18-17.4H23.5s0,0,0,0Z"/>
  <path class="st1" d="M23.5,6.2h43c6.1,5.7,12.1,11.5,18,17.4v75.5c-5.8,6-12,11.7-18,17.4H23.7c-6.2-5.5-12.3-11.4-18.3-17.3V23.7s.3-.5.3-.5c6-5.6,11.8-11.4,17.9-17h0ZM25,9.7c-4.9,4.5-9.8,9.2-14.5,13.9-.4.4-1.1.6-1.2,1.4v72.3c0,0,.4.5.4.5l15.2,15.1h40.4c5.2-5.2,10.6-10.3,15.6-15.7V24.7s-15.6-15-15.6-15H25s0,0,0,0Z"/>
  <path class="st2" d="M25,9.7h40.3s15.6,15,15.6,15v72.4c-5,5.3-10.3,10.5-15.6,15.7H24.8l-15.2-15.1-.4-.5V24.9c0-.7.7-.9,1.2-1.4,4.7-4.7,9.6-9.4,14.5-13.9h0ZM29.6,83c-.3,3.7-3.6,3.9-6.7,4-.1,0-.4.1-.4.2v2.6c0,.1.3.3.5.2,7-.2,14.2.3,21.3,0,19.5-.8,29.5-15.5,26.9-34.2-1.8-12.9-11.4-22.4-24.6-23.1-7.6-.4-15.6.3-23.3,0-.1,0-.5.1-.5.2v2.4c0,0,.4.3.5.3,1,.3,1.9.2,3,.6,1.5.6,3.1,1.6,2.9,3.4h-11.1v3.5c1.1.5,2.3.5,2.9,1.8.1.3.5,1.3.5,1.5v7.1h3.4s.2-.2.2-.2v-10.1h16.6c6.9,0,10.3,9,5.4,13.8-3.4,3.3-10.7,2.8-15.1,2.7-1.4,0-2.8,0-4.2-.1v3.2c0,.5,2.3,0,2.6,0,3.5,0,11.3-.4,14.2.8,6.8,2.9,6.3,12.8-.7,15-2.1.7-3.6.4-5.7.4-4.4,0-8.8,0-13.1,0v-10.8h-3.6v8.1c0,0-.5,1.1-.6,1.3-.7,1-1.6,1.3-2.8,1.5,0,.5-.3,3.6.3,3.6h11Z"/>
  <path class="st0" d="M29.6,83h-11c-.6,0-.3-3.1-.3-3.6,1.2-.2,2.1-.5,2.8-1.5.1-.2.6-1.2.6-1.3v-8.1h3.6v10.8c4.4,0,8.8,0,13.1,0,2,0,3.6.3,5.7-.4,7-2.2,7.5-12.1.7-15-3-1.3-10.7-.9-14.2-.8-.4,0-2.6.4-2.6,0v-3.2c1.4,0,2.8,0,4.2.1,4.4.2,11.8.7,15.1-2.7,4.9-4.9,1.5-13.8-5.4-13.8h-16.6v10.1s-.2.2-.2.2h-3.4v-7.1c0-.2-.4-1.3-.5-1.5-.7-1.2-1.8-1.3-2.9-1.8v-3.5h11.1c.1-1.8-1.4-2.9-2.9-3.4-1-.4-2-.4-3-.6-.1,0-.5-.2-.5-.3v-2.4c0-.1.3-.3.5-.2,7.7.3,15.6-.4,23.3,0,13.2.6,22.8,10.2,24.6,23.1,2.6,18.7-7.4,33.4-26.9,34.2-7,.3-14.2-.2-21.3,0-.1,0-.5-.1-.5-.2v-2.6c0,0,.2-.2.4-.2,3,0,6.4-.3,6.7-4h0ZM35.8,36.2v3.6c2,0,4-.1,6,0,10.8.6,15.4,13.3,7.4,20.6-.5.4-1.3.6-.9,1.2.4.7,1.7,1.7,2.2,2.4,6,7.5,1.4,17.9-8,18.9-2,.2-4.1.1-6.1.1.6,2.6,4.3,3.4,6.7,3.6,11.1.7,19.5-4.6,22.1-15.5,3.1-13.2-.4-29.4-14.7-33.9-4.9-1.5-9.6-1.1-14.6-1h0Z"/>
  <path class="st2" d="M35.8,36.2c5,0,9.7-.6,14.6,1,14.3,4.5,17.9,20.7,14.7,33.9-2.6,10.9-11,16.2-22.1,15.5-2.4-.2-6-1-6.7-3.6,2,0,4.1,0,6.1-.1,9.4-1.1,14.1-11.4,8-18.9-.6-.7-1.8-1.7-2.2-2.4-.4-.6.4-.7.9-1.2,8-7.3,3.4-20-7.4-20.6-1.9-.1-4,0-6,0v-3.6h0Z"/>
  <path class="st0" d="M302,48.2c-1.6,1.5-2.3,3.5-2.3,5.9,0,5,4,8,8.8,7.5,1.7-.2,3.2-.8,4.5-2,1.2-1.2,1.9-2.6,2.2-4.4.7-4.8-2.1-8.9-7.1-9.1-2.4-.1-4.4.6-6,2.1ZM319,53.3c.3,5.5-3.4,10.4-8.9,11.5-2.6.5-5.5.4-8-.9-3.7-1.8-6-5.3-6.2-9.5-.2-4.2,1.9-7.9,5.3-10.1,2.3-1.4,5.2-1.8,7.8-1.6,5.6.5,9.7,5.1,9.9,10.6"/>
  <path class="st0" d="M248.1,56.5h7.6c.1,0,.2-.1.2-.2l-3.7-8.6c0-.2-.3-.2-.4,0l-3.8,8.7c0,0,0,.1,0,.1ZM240.5,64.8c0,0-.1,0,0-.2.3-.6.6-1.1.9-1.7.6-1.2,1.4-3.2,2.2-5.2,2.8-6.3,4.9-10.9,6.2-13.9.3-.7.6-.9,1.4-.9.7,0,1.3,0,1.9-.1.4,0,.7.1.9.5l9.5,21.3c0,.1,0,.2-.1.2h-3.4c-.2,0-.4-.1-.4-.3-.5-1.2-1.1-2.6-1.7-4.2-.2-.5-.3-.9-1-.9-3.8,0-7,0-9.8,0-.2,0-.4.1-.5.3l-2.1,4.9c0,0-.1.2-.2.2h-3.6"/>
  <path class="st0" d="M271,50.7s0,0,0,0c0,1.1.1,2.1.1,3.2,0,3.2,0,6.8,0,10.7,0,.1-.1.2-.2.2h-3.2c-.1,0-.2,0-.2-.2v-21.4c0-.1,0-.2.2-.2h2.7c.2,0,.4.1.5.3l8.1,14.1c0,0,.2,0,.2,0,.3-.4.4-.7.5-.8,1-2,2.7-4.7,3.6-6.3,1.2-2.1,2.4-4.1,3.6-6.2.3-.5.3-1.1,1-1.1.9,0,1.6,0,2.3-.1.2,0,.4.1.4.3v21.6c0,0,0,.1-.1.1h-3.3c0,0-.2,0-.2-.2v-13.9s0,0,0,0c-.5.7-1,1.4-1.5,2.3-1.8,3.1-3.3,5.6-4.3,7.3-.5.9-1,1.5-1.3,1.8-.2.2-.4.3-.8.4,0,0-.2,0-.2,0-.5-.3-.8-.6-1-.9-1.3-2.1-3.3-5.4-6-9.9-.3-.4-.5-.7-.7-1.1Z"/>
  <path class="st0" d="M145.9,64.8h-14.8c-.1,0-.2,0-.2-.2v-21.5c0-.1,0-.2.2-.2h3.4c.1,0,.2,0,.2.2v18.2c0,.1,0,.2.2.2h11.1c.1,0,.2,0,.2.2v2.9c0,.1,0,.2-.2.2Z"/>
  <path class="st0" d="M190.5,46.3h-11.3c-.1,0-.2.1-.2.2v5.3c0,.1.1.2.2.2h10.1c.1,0,.2.1.2.2v2.8c0,.1-.1.2-.2.2h-10.1c-.1,0-.2.1-.2.2v5.7c0,.1.1.2.2.2h11.9c.1,0,.2.1.2.2v2.8c0,.1-.1.2-.2.2h-15.6c-.1,0-.2-.1-.2-.2v-21.5c0-.1.1-.2.2-.2h15.2c.1,0,.2.1.2.2v2.9c-.1.1-.2.2-.4.2Z"/>
  <path class="st0" d="M210.3,46.5v14.8c0,.1,0,.2.2.2h5.8c4.1,0,7.4-3.1,7.4-6.9v-1.4c0-3.8-3.3-6.9-7.4-6.9h-5.8c-.1,0-.2,0-.2.2ZM206.5,43.1c0-.1,0-.2.2-.2h9.9c6,0,10.9,4.7,10.9,10.4v1.1c0,5.7-4.9,10.4-10.9,10.4h-9.9c-.1,0-.2,0-.2-.2v-21.4"/>
  <path class="st0" d="M236.6,64.6c0,0,0,.2-.2.2h-3.4c0,0-.2,0-.2-.2v-21.5c0,0,.1-.2.2-.2h3.4c0,0,.2,0,.2.2v21.5Z"/>
  <path class="st0" d="M339.5,58s0,0,0,0v-14.9c0-.1,0-.2.2-.2,1.1,0,2.1,0,3.2,0,.3,0,.4.2.4.6,0,7.1,0,14.1,0,21,0,.1-.1.3-.3.3h-2c-.4,0-.8-.2-1-.5-.9-1-2.4-2.9-4.6-5.7-2.4-3.1-4.4-5.4-6.9-8.6,0,0-.1-.1-.3-.2,0,0-.1,0,0,0,.1.8.2,1.8.2,2.6,0,4.3,0,8.4,0,12.2,0,0,0,.1-.1.1h-3.4c-.1,0-.2-.1-.2-.2v-21.5c0,0,0-.1.2-.1,1.1,0,1.9,0,2.3,0,.5,0,.9.2,1.2.6,2.5,3,5.1,6.4,7.8,9.7,1.8,2.1,3,3.7,3.6,4.6,0,0,0,.1,0,.2Z"/>
  <path class="st0" d="M110.3,55.4v6.2c0,0,0,0,0,0h7.7c1.9,0,3.5-1.3,3.5-2.9v-.6c0-1.6-1.5-2.9-3.5-2.9h-7.7c0,0,0,0,0,0ZM110.3,46.2v5.9c0,0,.1,0,.2,0h6.6c1.9,0,3.5-1.4,3.4-2.9v-.4c0-1.6-1.6-2.8-3.5-2.8h-6.6c0,0,0,.1,0,.2M122.1,53.4c1.7,1,3.2,2.7,3.2,4.7,0,1.6-.1,2.7-1.1,4-1.1,1.4-2.5,2.2-4.4,2.4-1.3.2-2.9.2-4.8.2-3.8,0-6.5,0-8.2,0-.2,0-.3-.1-.3-.3v-21.4c0,0,0-.2.2-.2,4.3,0,7.4,0,9.4,0,1.4,0,2.7.1,3.8.4,2.5.6,4.5,3,4.4,5.7,0,1.8-.8,3.2-2.2,4.3,0,0,0,0,0,0"/>
  <path class="st0" d="M159,61.7c4.3,0,5.6-2.6,5.6-6.5,0-3.1,0-7.1,0-12,0-.1,0-.2.2-.2h3.3c.1,0,.2,0,.2.2,0,5,0,9.3,0,12.9,0,1.5-.2,3-.9,4.4-1.6,3.4-4.6,4.6-8.3,4.6-3.7,0-6.7-1.2-8.3-4.7-.7-1.4-.9-2.9-.9-4.4,0-3.6,0-7.9,0-12.9,0-.1,0-.2.2-.2h3.3c.1,0,.2.1.2.2,0,4.9,0,8.9,0,12,0,3.8,1.3,6.5,5.6,6.5Z"/>
  <path class="st0" d="M354.2,46.5v14.8c0,.1,0,.2.1.2h5.9c4.1,0,7.4-3.1,7.4-6.9v-1.2c0-3.8-3.3-7-7.3-7h-5.9c-.1,0-.2,0-.2.2ZM350.5,43.2c0-.2.1-.3.3-.3h9.8c6,0,10.9,4.8,10.9,10.6v.7c0,5.8-4.9,10.6-10.9,10.5h-9.8c-.2,0-.3-.2-.3-.3v-21.3"/>
  <path class="st0" d="M299.2,84.6l4.4-7.7c.1-.3.4-.4.7-.4l2.3-.2c.1,0,.2.1.1.2-2.7,4.4-4.7,7.8-6.3,10.3-.4.6-.2,1.7-.2,2.1,0,1,0,2.1,0,3.5s-.2.5-.5.5h-1.7c-.2,0-.3-.2-.3-.3v-5c0,0,0-.1,0-.2-.3-.6-.6-1.2-.8-1.5-1.6-2.6-3.2-5.1-4.8-7.7-.2-.4-.5-.8-.9-1.3-.1-.2,0-.4.2-.4h2.5s0,0,0,0c.2.2.4.4.5.5,1.1,1.9,2.5,4.3,4.1,7,0,0,0,0,.1.1.1.1.2.3.3.4,0,0,.1,0,.2,0Z"/>
  <path class="st0" d="M204.2,88.5s0,0,0,0c1.2-3.8,2.5-7.7,4-11.5.2-.6,1.6-.5,2.1-.4.3,0,.5.3.5.5.6,1.9,1.6,4.9,3,9,.3.8.6,1.6.9,2.3,0,0,.1,0,.2,0l3.7-11.3c0-.3.3-.5.6-.5h2c.2-.1.3,0,.3.3,0,.1-1.1,3.3-3.2,9.7-.6,1.9-1.3,3.8-2.1,5.7-.4,1-1,1-1.9.8,0,0-.1,0-.2,0-.3,0-.6-.5-.9-1.2-.9-2.3-1.6-4.4-2.1-6.2-.4-1.4-.9-2.5-1.2-3.7,0-.2-.1-.5-.3-.7,0,0-.1,0-.1,0-.2.2-.2.4-.3.4-.4,1.3-.6,2.3-.9,2.9-.9,2.6-1.7,4.8-2.4,6.7-.2.6-.4,1.1-.7,1.5-.1.2-.4.4-.6.5-.2,0-.6,0-1.2-.1-.6-.1-.8-.7-1-1.1-1.6-4.4-3-8.7-4.3-12.9-.3-.9-.5-1.5-.9-2.3,0,0,0,0,0,0h2.3s0,0,0,0c.3.1.5.3.6.5,1.1,3.6,2.3,7.1,3.4,10.5.1.4.3.7.5,1Z"/>
  <path class="st0" d="M249,93h-10.9c-.1,0-.2-.1-.2-.2v-16c0-.1.1-.2.2-.2h2.2c.1.1.2.2.2.3v13.5c0,.1.1.2.2.2h8.2c.1,0,.2.1.2.2v2c0,.1-.1.2-.2.2Z"/>
  <path class="st0" d="M281,79v6.5c0,0,0,.1.1.1h4c2,0,3.6-1.4,3.6-3.2v-.4c0-1.7-1.6-3.2-3.7-3.2h-4c0,0-.1,0-.1.1ZM292,92.9c0,0,0,.1,0,.1-1,0-2.6.1-3.3-.8-1.1-1.6-2-2.8-2.6-3.7-.2-.3-.4-.4-.7-.4-1.5,0-2.9,0-4.1,0-.1,0-.2,0-.2.2v4.4c0,.2-.2.4-.4.4h-2c-.1,0-.3-.1-.3-.3v-16c0-.1,0-.2.2-.2,1.3,0,3.2,0,5.7,0,2.6,0,5,.5,6.5,2.8.9,1.5,1,3.6.4,5.2-.3.9-.9,1.7-1.8,2.5,0,0-.1,0-.2.1l-.6.3c-.1,0-.1.2,0,.3.9,1.4,1.8,2.7,2.7,3.9.3.4.6,1,.8,1.4"/>
  <path class="st0" d="M178.3,79c0,0,0-.1-.1-.1h-5.2c-.2,0-.3-.1-.3-.3v-1.8c0-.2.1-.3.3-.3h7.5c.2,0,.4.2.4.4,0,3.9,0,7.5,0,10.9,0,.9,0,2.1-.5,2.9-1.1,2.1-3.2,2.5-5.4,2.2-1.1-.1-2-.5-2.8-1.2-.6-.5-1.2-1.4-.6-2.2.3-.5.7-1,1.4-.8.1,0,.3.2.5.5.9,1.4,2.7,1.7,4.1.9.7-.3.7-2.1.7-2.8,0-2.7,0-5.5,0-8.4Z"/>
  <path class="st0" d="M187.5,83.4h7.5c.2,0,.4.2.4.4v1.7c0,.1-.1.3-.3.3h-7.7c0,0-.1,0-.1.1v4.4c0,.1.1.2.2.2,2.5,0,5.4,0,8.5,0,.4,0,.6.1.6.4,0,.4.1,1,.2,1.7,0,.2-.1.4-.3.4h-11.3c-.2,0-.4-.2-.4-.4v-15.9c0-.1,0-.2.2-.2h11.1c.2,0,.4.2.3.4,0,.5,0,1.1.1,1.7,0,.2,0,.4-.3.4h-8.7c0,0-.1,0-.1.1v4.2c0,0,0,.1.1.1Z"/>
  <path class="st0" d="M223.3,92.8v-16c0-.1,0-.2.2-.2h11.1c.1,0,.2.1.2.2v1.9c0,.1-.2.2-.3.2h-8.4c-.1,0-.2,0-.2.2v4.1c0,.1,0,.2.2.2h7.6c.1,0,.2.1.2.2v1.9c0,.1-.2.2-.3.2h-7.5c-.1,0-.2,0-.2.2v4.3c0,.1,0,.2.2.2h8.8c.1,0,.2,0,.2.2v2.1c.1.1,0,.2,0,.2h-11.5c-.1,0-.2,0-.2-.2Z"/>
  <path class="st0" d="M253.6,90.5h8.3c.2,0,.3.1.3.3v1.9c0,.2-.1.3-.3.3h-10.8c-.2,0-.3-.1-.3-.3v-15.8c0-.2.1-.3.3-.3h2.1c.2.1.4.3.4.5v13.4s0,0,0,0Z"/>
  <path class="st0" d="M275.6,90.6v2c.1.2,0,.3-.2.3h-11.3c-.2,0-.3,0-.3-.3v-16.1c0,0,0-.1,0-.1h11.2c.2,0,.3.2.3.4v1.7c0,.2-.2.3-.3.3h-8.4c0,0-.1,0-.1.1v4.3c0,0,0,.2.1.2h7.5c.2,0,.4.1.4.4v1.7c0,.1-.2.3-.4.3h-7.6c0,0-.1,0-.1.2v4.4c0,.1,0,.2.2.2h8.9c0,0,.2,0,.2.1Z"/>
  <g>
    <path class="st1" d="M20.9,136c-.5,0-1,0-1.5-.3-.5-.2-.8-.4-1.1-.7l.3-.6c.2.2.6.4,1,.6.4.2.9.2,1.3.2s.8,0,1.1-.2c.3-.1.5-.3.6-.4s.2-.4.2-.6,0-.5-.2-.7-.4-.3-.6-.4c-.3,0-.5-.2-.8-.3-.3,0-.6-.2-.9-.2-.3,0-.6-.2-.8-.3-.3-.1-.5-.3-.6-.6-.2-.2-.2-.5-.2-.9s0-.7.3-1c.2-.3.5-.5.8-.7.4-.2.9-.3,1.5-.3s.8,0,1.2.2c.4.1.7.3,1,.5l-.2.6c-.3-.2-.6-.3-1-.4-.3,0-.7-.1-1-.1s-.8,0-1,.2-.5.3-.6.5c-.1.2-.2.4-.2.6s0,.5.2.7.4.3.6.4c.3,0,.5.2.8.2.3,0,.6.2.9.2s.6.2.8.3c.3.1.5.3.6.5s.2.5.2.9,0,.7-.3.9-.5.5-.9.7-.9.3-1.5.3Z"/>
    <path class="st1" d="M25.4,129.5c-.1,0-.3,0-.4-.1-.1-.1-.1-.2-.1-.4s0-.3.1-.4c.1,0,.2-.1.4-.1s.3,0,.4.1c0,0,.1.2.1.4s0,.3-.1.4c0,0-.2.1-.4.1ZM25,135.9v-5.2h.7v5.2h-.7Z"/>
    <path class="st1" d="M27.8,135.9v-5.2h.7v1.4-.3c0-.4.3-.7.7-.9s.8-.3,1.3-.3.8,0,1.1.2c.3.2.6.4.8.7.2.3.3.8.3,1.3v3h-.7v-3c0-.6-.1-1-.4-1.3-.3-.3-.7-.4-1.2-.4s-.7,0-1,.2c-.3.1-.5.4-.6.6-.1.3-.2.6-.2,1v2.8h-.7Z"/>
    <path class="st1" d="M36.9,136c-.5,0-1-.1-1.4-.3-.4-.2-.7-.5-1-1s-.4-.9-.4-1.4.1-1,.4-1.4c.2-.4.6-.7,1-.9.4-.2.9-.3,1.4-.3s.9,0,1.2.3c.4.2.6.4.9.8l-.5.4c-.2-.3-.4-.5-.7-.6-.3-.1-.6-.2-.9-.2s-.7,0-1,.3c-.3.2-.5.4-.7.7s-.3.7-.3,1.1,0,.8.3,1.1.4.5.7.7c.3.2.6.3,1,.3s.6,0,.9-.2c.3-.1.5-.3.7-.6l.5.4c-.2.3-.5.6-.9.8-.4.2-.8.3-1.2.3Z"/>
    <path class="st1" d="M42.6,136c-.5,0-1-.1-1.4-.3-.4-.2-.7-.5-1-1s-.4-.9-.4-1.4.1-1,.3-1.4c.2-.4.5-.7.9-.9.4-.2.8-.3,1.3-.3s.9.1,1.3.3c.4.2.7.5.9.9.2.4.3.9.3,1.4s0,0,0,.1c0,0,0,0,0,.1h-4.6v-.5h4.2l-.3.2c0-.4,0-.7-.2-1-.2-.3-.4-.5-.7-.7-.3-.2-.6-.2-1-.2s-.7,0-1,.2c-.3.2-.5.4-.7.7-.2.3-.2.6-.2,1h0c0,.5,0,.9.3,1.2s.4.5.7.7c.3.2.7.3,1.1.3s.6,0,.9-.2c.3-.1.5-.3.7-.5l.4.5c-.2.3-.5.5-.9.6s-.7.2-1.2.2Z"/>
    <path class="st1" d="M49.9,135.9v-6.7l.3.3h-2v-.6h2.4v7h-.7Z"/>
    <path class="st1" d="M54.3,136c-.3,0-.6,0-.9,0-.3,0-.5-.2-.8-.3l.3-.6c.2.1.4.2.6.3.2,0,.5,0,.7,0,.8,0,1.4-.2,1.8-.7.5-.5.7-1.2.7-2.2s0-.3,0-.5c0-.2,0-.4-.1-.6l.2.2c0,.3-.2.6-.4.9s-.5.4-.8.6c-.3.1-.7.2-1.1.2s-.9,0-1.2-.3c-.4-.2-.6-.4-.8-.7-.2-.3-.3-.7-.3-1.1s.1-.8.3-1.1c.2-.3.5-.6.9-.7.4-.2.8-.3,1.2-.3s1.1.1,1.6.4c.4.3.8.7,1,1.2.2.5.3,1.2.3,1.9s-.1,1.4-.4,2-.6.9-1.1,1.2-1,.4-1.7.4ZM54.7,132.5c.4,0,.7,0,.9-.2.3-.1.5-.3.6-.5s.2-.5.2-.8,0-.5-.2-.7c-.1-.2-.3-.4-.6-.6-.3-.1-.6-.2-1-.2s-.6,0-.9.2c-.3.1-.5.3-.6.5-.1.2-.2.5-.2.8,0,.5.2.8.5,1.1.3.3.7.4,1.3.4Z"/>
    <path class="st1" d="M61.3,136c-.6,0-1,0-1.4-.2s-.7-.4-.9-.7c-.2-.3-.3-.7-.3-1.1s.1-.7.3-1,.5-.5.9-.7.9-.2,1.5-.2,1.1,0,1.5.2c.4.2.7.4.9.7.2.3.3.6.3,1s-.1.8-.3,1.1c-.2.3-.5.5-.9.7s-.9.2-1.4.2ZM61.3,132.5c-.5,0-1,0-1.3-.2-.4-.1-.6-.3-.8-.6-.2-.3-.3-.6-.3-.9s.1-.7.3-1c.2-.3.5-.5.9-.6.4-.1.8-.2,1.3-.2s.9,0,1.3.2.7.4.9.6.3.6.3,1,0,.7-.3.9c-.2.3-.5.5-.8.6-.4.1-.8.2-1.3.2ZM61.3,135.4c.6,0,1.1-.1,1.5-.4.4-.3.5-.6.5-1s-.2-.8-.5-1c-.3-.2-.8-.4-1.5-.4s-1.1.1-1.5.4-.5.6-.5,1,.2.8.5,1c.3.3.8.4,1.5.4ZM61.3,132c.5,0,1-.1,1.3-.3s.5-.5.5-.9-.2-.7-.5-.9c-.3-.2-.7-.3-1.3-.3s-.9.1-1.3.3c-.3.2-.5.5-.5.9s.2.7.5.9c.3.2.7.3,1.3.3Z"/>
    <path class="st1" d="M65,134.1v-.5l3.7-4.6h.8l-3.7,4.6h-.4c0-.1,5.6-.1,5.6-.1v.6h-6.1ZM68.9,135.9v-2.5s0-1.6,0-1.6h.7v4.1h-.7Z"/>
  </g>
</svg>