<?xml version="1.0" encoding="UTF-8"?>
<svg id="Layer_1" xmlns="http://www.w3.org/2000/svg" version="1.1" viewBox="0 0 379 138">
  <defs>
    <style>
      .st0 {
        fill: #c99049;
        opacity: 0.1;
      }
      .st1 {
        fill: #275fac;
        opacity: 0.1;
      }
      .st2 {
        fill: #fefefe;
        opacity: 0.1;
      }
    </style>
  </defs>
  <path class="st1" d="M23.7,1.3h41.4c3.8.2,5,2.1,7.5,4.5,4.7,4.3,9.6,8.8,14.1,13.3,1.3,1.3,2.4,2.4,2.8,4.3.3,24.9.3,49.8,0,74.7-.3,1.3-1,2.4-1.8,3.4l-18,18.2c-1.4,1.1-3,1.7-4.7,1.9H24.6c-1.7-.2-3.2-.6-4.5-1.7-5.6-5.6-11.5-10.8-17-16.4-1.7-1.7-2.8-2.7-3-5.4V24.5c.2-3.9,3.9-6.2,6.4-8.7,3.7-3.6,7.3-7.3,11.1-10.8,1.9-1.7,3.3-3.3,6-3.6h0ZM23.7,2.3c-1.1.3-2.2.6-3.1,1.3C15,9.2,9.1,14.4,3.7,20c-1.2,1.3-2.2,2.2-2.5,4.1v73.7c0,1.2.5,2.4,1.2,3.4,6.3,6.1,12.4,12.3,18.9,18.1,1.2.8,2.4,1,3.8,1.1h39.5c1.5,0,3-.5,4.2-1.4l18.4-18.5c1-1.2,1.5-2.7,1.6-4.2V25c-.1-1.5-.5-2.9-1.4-4-1.8-2.2-5.1-4.7-7.3-6.8-3.4-3.2-7.1-7.2-10.6-10.2-1.3-1.1-2.6-1.6-4.3-1.7H23.7s0,0,0,0Z"/>
  <path class="st2" d="M23.7,2.3h41.4c1.7,0,3,.6,4.3,1.7,3.6,3,7.2,6.9,10.6,10.2,2.2,2.1,5.4,4.6,7.3,6.8.9,1.1,1.3,2.6,1.4,4v71.3c-.1,1.5-.6,3-1.6,4.2l-18.4,18.5c-1.3.9-2.7,1.3-4.2,1.4H25.1c-1.4-.1-2.6-.3-3.8-1.1-6.4-5.9-12.6-12.1-18.9-18.1-.7-1-1.1-2.2-1.2-3.4V24.1c.3-2,1.3-2.8,2.5-4.1C9.1,14.4,15,9.2,20.5,3.7c.9-.8,2-1.1,3.1-1.3ZM23.5,6.2c-6.1,5.5-11.9,11.4-17.9,17l-.3.5v75.6c6,5.9,12.1,11.7,18.3,17.3h42.8c6.1-5.7,12.3-11.5,18.1-17.4V23.7c-5.9-5.9-11.9-11.8-18-17.4H23.5s0,0,0,0Z"/>
  <path class="st1" d="M23.5,6.2h43c6.1,5.7,12.1,11.5,18,17.4v75.5c-5.8,6-12,11.7-18,17.4H23.7c-6.2-5.5-12.3-11.4-18.3-17.3V23.7s.3-.5.3-.5c6-5.6,11.8-11.4,17.9-17h0ZM25,9.7c-4.9,4.5-9.8,9.2-14.5,13.9-.4.4-1.1.6-1.2,1.4v72.3c0,0,.4.5.4.5l15.2,15.1h40.4c5.2-5.2,10.6-10.3,15.6-15.7V24.7s-15.6-15-15.6-15H25s0,0,0,0Z"/>
  <path class="st2" d="M25,9.7h40.3s15.6,15,15.6,15v72.4c-5,5.3-10.3,10.5-15.6,15.7H24.8l-15.2-15.1-.4-.5V24.9c0-.7.7-.9,1.2-1.4,4.7-4.7,9.6-9.4,14.5-13.9h0ZM29.6,83c-.3,3.7-3.6,3.9-6.7,4-.1,0-.4.1-.4.2v2.6c0,.1.3.3.5.2,7-.2,14.2.3,21.3,0,19.5-.8,29.5-15.5,26.9-34.2-1.8-12.9-11.4-22.4-24.6-23.1-7.6-.4-15.6.3-23.3,0-.1,0-.5.1-.5.2v2.4c0,0,.4.3.5.3,1,.3,1.9.2,3,.6,1.5.6,3.1,1.6,2.9,3.4h-11.1v3.5c1.1.5,2.3.5,2.9,1.8.1.3.5,1.3.5,1.5v7.1h3.4s.2-.2.2-.2v-10.1h16.6c6.9,0,10.3,9,5.4,13.8-3.4,3.3-10.7,2.8-15.1,2.7-1.4,0-2.8,0-4.2-.1v3.2c0,.5,2.3,0,2.6,0,3.5,0,11.3-.4,14.2.8,6.8,2.9,6.3,12.8-.7,15-2.1.7-3.6.4-5.7.4-4.4,0-8.8,0-13.1,0v-10.8h-3.6v8.1c0,0-.5,1.1-.6,1.3-.7,1-1.6,1.3-2.8,1.5,0,.5-.3,3.6.3,3.6h11Z"/>
  <path class="st0" d="M29.6,83h-11c-.6,0-.3-3.1-.3-3.6,1.2-.2,2.1-.5,2.8-1.5.1-.2.6-1.2.6-1.3v-8.1h3.6v10.8c4.4,0,8.8,0,13.1,0,2,0,3.6.3,5.7-.4,7-2.2,7.5-12.1.7-15-3-1.3-10.7-.9-14.2-.8-.4,0-2.6.4-2.6,0v-3.2c1.4,0,2.8,0,4.2.1,4.4.2,11.8.7,15.1-2.7,4.9-4.9,1.5-13.8-5.4-13.8h-16.6v10.1s-.2.2-.2.2h-3.4v-7.1c0-.2-.4-1.3-.5-1.5-.7-1.2-1.8-1.3-2.9-1.8v-3.5h11.1c.1-1.8-1.4-2.9-2.9-3.4-1-.4-2-.4-3-.6-.1,0-.5-.2-.5-.3v-2.4c0-.1.3-.3.5-.2,7.7.3,15.6-.4,23.3,0,13.2.6,22.8,10.2,24.6,23.1,2.6,18.7-7.4,33.4-26.9,34.2-7,.3-14.2-.2-21.3,0-.1,0-.5-.1-.5-.2v-2.6c0,0,.2-.2.4-.2,3,0,6.4-.3,6.7-4h0ZM35.8,36.2v3.6c2,0,4-.1,6,0,10.8.6,15.4,13.3,7.4,20.6-.5.4-1.3.6-.9,1.2.4.7,1.7,1.7,2.2,2.4,6,7.5,1.4,17.9-8,18.9-2,.2-4.1.1-6.1.1.6,2.6,4.3,3.4,6.7,3.6,11.1.7,19.5-4.6,22.1-15.5,3.1-13.2-.4-29.4-14.7-33.9-4.9-1.5-9.6-1.1-14.6-1h0Z"/>
  <path class="st2" d="M35.8,36.2c5,0,9.7-.6,14.6,1,14.3,4.5,17.9,20.7,14.7,33.9-2.6,10.9-11,16.2-22.1,15.5-2.4-.2-6-1-6.7-3.6,2,0,4.1,0,6.1-.1,9.4-1.1,14.1-11.4,8-18.9-.6-.7-1.8-1.7-2.2-2.4-.4-.6.4-.7.9-1.2,8-7.3,3.4-20-7.4-20.6-1.9-.1-4,0-6,0v-3.6h0Z"/>
</svg>
